PathFileType	4	(X/Y/Z)	C:/Users/beibeiliu/ov580/test_trc\sequence.11_training_dense_right.trc
DataRate	CameraRate	NumFrames	NumMarkers	Units	OrigDataRate	OrigDataStartFrame	OrigNumFrames
120	120	25	19	mm	120	94	124
Frame#	Time	ThumbCMC			ThumbMCP			ThumbIP			ThumbTip			IndexMCP			IndexPIP			IndexTip			MiddleMCP			MiddlePIP			MiddleTip			RingMCP			RingPIP			RingTip			PinkyMCP			PinkyPIP			PinkyTip			BackHand1			BackHand2			BackHand3	
		X0	Y0	Z0	X1	Y1	Z1	X2	Y2	Z2	X3	Y3	Z3	X4	Y4	Z4	X5	Y5	Z5	X6	Y6	Z6	X7	Y7	Z7	X8	Y8	Z8	X9	Y9	Z9	X10	Y10	Z10	X11	Y11	Z11	X12	Y12	Z12	X13	Y13	Z13	X14	Y14	Z14	X15	Y15	Z15	X16	Y16	Z16	X17	Y17	Z17	X18	Y18	Z18	
93	0.775	165.925	-13.4223	120.539	139.828	1.50692	101.569	124.198	3.35908	75.7966	109.762	2.13873	58.7984	168.027	-49.7903	59.5016	156.734	-46.777	34.131	132.258	-45.3038	16.2409	149.728	-59.5261	61.983	120.126	-43.5265	46.5256	103.715	-18.2285	62.3278	135.639	-76.1234	69.3206	118.015	-71.8887	50.3998	100.785	-54.9988	35.4938	124.107	-89.9005	92.7216	113.098	-100.222	77.5891	103.07	-112.25	57.5515	155.061	-77.861	121.325	162.896	-64.5641	153.111	181.591	-52.1452	123.558	
94	0.783333	184.92	-28.969	128.159	165.303	-17.1269	100.866	156.427	-15.879	70.4274	145.004	-24.63	49.519	198.656	-75.7617	70.5873	192.622	-75.9201	41.7036	180.905	-71.0381	20.027	180.724	-83.9834	68.5997	160.594	-68.4887	45.1303	140.195	-40.6854	50.3168	165.427	-99.1421	76.1027	152.105	-95.8543	52.3024	137.898	-80.8178	31.3608	151.111	-103.354	97.7907	145.071	-116.836	78.1631	138.731	-132.682	55.5461	171.07	-90.9013	130.839	170.992	-80.0147	157.045	199.909	-65.7483	139.9	
95	0.791667	203.824	-34.51	130.693	187.461	-28.0292	100.049	182.311	-33.6496	68.8282	176.659	-45.0273	52.4816	232.647	-83.3542	86.9497	229.46	-89.0985	56.8833	220.71	-87.6387	32.7605	211.733	-97.6331	83.3308	200.437	-87.0614	52.5415	175.493	-64.518	45.4282	200.783	-109.505	89.2332	193.44	-110.876	61.0929	181.52	-99.5763	35.8245	183.747	-116.991	105.981	182.852	-132.699	85.0034	183.478	-144.917	64.8307	196.594	-97.2616	142.295	188.593	-84.8648	166.968	215.915	-73.4346	148.543	
96	0.8	212.074	-27.4179	132.623	197.488	-33.263	100.39	194.884	-36.543	74.6125	193.9	-49.7036	53.1515	256.144	-68.2071	93.1496	257.831	-72.4604	67.0156	248.626	-82.1217	42.2989	241.647	-85.0649	85.074	226.52	-84.4713	58.3511	202.853	-68.9095	45.3386	230.254	-104.055	96.8592	227.322	-106.297	63.9	218.832	-96.4727	39.0008	214.14	-116.633	114.751	226.063	-126.132	91.9773	231.703	-141.308	75.7346	219.125	-88.0953	148.929	208.728	-77.0964	170.829	230.664	-58.0508	157.7	
97	0.808333	208.594	-15.8746	130.447	198.597	-26.3393	100.251	196.664	-30.3054	71.8178	202.562	-47.3052	53.2209	265.801	-41.4987	93.7436	268.234	-45.0814	66.1002	264.927	-54.2368	41.0134	259.382	-58.9466	85.3286	246.09	-61.2014	59.2425	214.332	-60.3671	44.3857	257.667	-81.1469	94.3724	255.511	-87.9273	68.9135	243.307	-86.1929	41.4383	246.415	-95.6253	115.028	259.394	-110.03	94.5884	272.304	-120.053	75.3572	239.589	-72.3623	147.648	225.3	-63.8113	171.427	239.077	-36.4177	154.786	
98	0.816667	194.671	-7.75897	128.258	185.51	-20.5435	96.6989	190.584	-29.7177	70.4777	197.946	-40.9453	47.0055	257.988	-13.3844	87.2394	262.06	-17.9363	59.8329	259.56	-23.4337	31.7614	258.569	-34.6776	80.7006	243.755	-42.5082	51.9896	216.461	-48.9083	41.7014	263.199	-54.0573	92.8513	264.128	-60.3376	64.8069	252.027	-64.1155	38.8857	258.441	-75.5858	112.661	275.725	-77.7378	89.7828	288.292	-86.7817	71.452	243.629	-46.527	143.87	227.277	-47.0809	169.109	233.194	-14.7091	146.775	
99	0.825	174.62	-5.43285	119.595	167.961	-23.6907	91.0645	171.851	-31.7627	61.9351	179.787	-41.6028	40.3089	229.863	5.90543	74.0508	233.764	1.56984	47.6176	231.054	-14.0391	20.2184	237.84	-14.3362	69.0517	227.214	-29.9286	45.0082	197.847	-46.7955	38.4117	249.768	-33.3383	79.9182	250.117	-44.9838	52.4491	236.532	-55.3983	29.697	255.322	-53.8689	101.623	268.714	-60.4438	82.078	283.649	-61.9468	62.1085	234.421	-29.6036	131.724	220.649	-32.1389	160.485	212.043	-2.0955	137.236	
100	0.833333	146.749	-14.0747	116.855	137.424	-35.2483	89.859	139.04	-47.6293	65.6287	154.606	-57.8372	45.4416	193.053	1.33542	61.0899	193.322	-6.5424	31.3704	190.991	-26.1922	14.179	204.311	-17.1449	59.0577	194.225	-39.8559	37.5285	170.415	-61.7606	42.9549	221.007	-28.4688	70.4653	219.09	-42.8663	42.619	201.539	-64.0211	24.3028	230.449	-42.362	92.2126	243.129	-46.79	72.6203	259.022	-55.9067	51.8974	207.891	-17.5148	121.705	201.82	-20.4445	150.274	184.244	3.08091	126.686	
101	0.841667	116.326	-26.7983	117.282	111.927	-54.7686	100.099	107.944	-72.4181	76.1432	116.143	-85.3161	61.4363	148.131	-19.0539	51.9416	147.237	-34.6067	29.0989	144.318	-63.8607	17.032	165.688	-38.3052	52.9965	155.017	-63.7345	41.884	133.978	-87.7827	63.288	182.6	-42.7559	62.7681	180.097	-66.3069	43.7427	162.412	-91.3553	37.208	198.083	-50.1466	86.8239	211.472	-61.0984	65.9324	224.539	-71.3777	46.4081	179.861	-22.0398	116.963	173.934	-16.8509	143.776	154.142	-4.53853	118.622	
102	0.85	100.407	-31.486	125.892	84.4691	-59.947	115.104	76.1904	-81.6435	95.2485	82.4582	-97.667	83.7702	121.522	-42.8981	58.4158	115.644	-63.2145	38.2922	105.586	-91.3851	32.3687	134.471	-61.7025	60.0258	117.583	-91.3544	56.3095	99.9978	-103.402	88.3001	152.801	-69.9698	70.0651	141.895	-94.5678	55.0811	120.251	-117.094	57.8895	170.65	-75.2524	86.8577	176.498	-91.513	71.7959	183.919	-108.13	54.9305	159.701	-37.2139	109.251	161.168	-24.9053	141.157	137.618	-15.5623	116.526	
103	0.858333	97.9615	-17.1801	125.265	75.2609	-41.4986	117.099	60.8232	-59.2224	101.305	54.9692	-80.4415	85.0822	112.455	-49.6797	57.3814	94.3862	-65.2642	40.0293	75.1835	-85.2553	35.4216	116.599	-69.7964	64.3542	87.1053	-85.7963	63.8631	68.347	-85.9551	92.5856	129.377	-81.5016	70.2484	112.087	-101.344	61.644	84.407	-114.642	64.8888	146.816	-93.3547	90.81	144.21	-107.598	77.1509	145.656	-126.561	60.9452	153.756	-51.2283	110.568	158.526	-35.0333	137.455	138.163	-16.7379	112.43	
104	0.866667	119.046	-6.13717	121.507	84.1445	-11.7658	108.804	66.2936	-24.7713	93.2289	54.0161	-39.0991	81.2756	119.506	-35.5351	53.8366	96.7774	-45.7179	35.1904	73.7388	-59.7522	30.7235	111.015	-55.9183	58.1882	80.0396	-63.1026	60.5559	60.0749	-55.1312	88.5341	120.17	-77.6463	69.1553	94.767	-84.787	55.2296	64.5528	-89.1167	57.59	129.675	-91.7136	92.2823	121.284	-108.012	77.8842	116.931	-126.078	57.8733	153.984	-56.3407	112.544	161.621	-46.0901	139.249	153.255	-24.8604	113.292	
105	0.875	142.602	2.28614	115.685	109.121	7.0926	101.804	87.6515	3.89566	81.9525	73.3557	-8.118	67.0463	139.391	-28.7583	48.7932	119.762	-29.4431	30.9086	96.5927	-33.4716	20.1972	125.497	-45.0773	54.7504	96.5389	-40.2085	50.2829	74.5738	-23.6713	75.5584	125.657	-65.375	61.5913	102.237	-65.2086	46.1135	77.038	-59.6778	40.8245	126.835	-83.5672	87.7132	116.142	-96.9813	69.3997	110.613	-113.005	55.7338	156.984	-58.3	109.465	167.11	-48.9698	137.427	168.938	-25.8012	109.825	
106	0.883333	167.549	3.96889	114.822	138.365	11.9223	96.263	120.304	11.0519	72.649	106.555	3.70897	58.5337	166.348	-35.2546	50.6324	151.893	-33.6627	30.6012	128.691	-31.1085	12.5718	148.437	-47.7074	52.8089	121.338	-33.7103	43.1862	102.308	-10.3379	66.4402	146.047	-65.4128	60.7107	126.749	-62.6241	42.0851	105.013	-49.0897	30.1382	136.524	-81.0117	88.3521	125.571	-95.3391	68.2188	120.354	-109.986	55.6892	167.512	-66.1768	113.486	173.221	-57.388	143.621	187.613	-35.3598	113.81	
107	0.891667	189.605	-6.89199	117.777	164.239	-2.50564	92.7203	151.902	-0.846997	65.9453	140.122	-5.73424	46.9647	199.745	-50.1794	57.2644	188.674	-46.6358	29.9481	166.363	-42.8467	10.2895	179.321	-60.182	54.4022	157.407	-43.7006	40.4458	136.284	-21.7952	56.7965	170.395	-76.4283	65.9502	151.43	-75.0266	40.8236	137.81	-58.5781	25.1198	154.759	-90.5104	88.1089	149.265	-100.752	72.4197	145.601	-117.003	52.464	180.575	-74.003	120.859	184.969	-63.6085	146.855	205.297	-46.6683	125.135	
108	0.9	207.41	-19.3287	123.871	189.131	-12.6858	90.2709	181.238	-10.6651	64.0872	172.533	-23.8819	44.6017	228.295	-66.6867	71.9504	220.868	-66.6975	40.2287	205.405	-61.408	17.7899	211.014	-75.4767	70.0901	189.091	-64.436	45.397	171.415	-34.5694	54.9515	196.687	-91.831	73.2287	183.952	-91.7263	47.8115	170.09	-76.4379	25.1481	179.251	-102.849	93.447	176.924	-112.728	78.0549	173.449	-131.773	58.8404	195.698	-81.6631	131.616	197.822	-68.4436	156.362	222.476	-56.8797	137.73	
109	0.908333	223.219	-21.249	128.355	208.024	-21.5998	96.8661	204.841	-25.1036	65.5089	201.138	-38.6942	46.3848	257.26	-68.2757	86.657	254.868	-72.3065	57.5253	239.98	-71.7815	28.4528	238.167	-83.6175	77.1946	224.88	-70.1162	53.4175	196.844	-48.8402	57.7553	225.712	-99.8744	85.5034	220.198	-101.693	59.6505	209.214	-89.7702	33.6735	211.35	-108.518	104.129	210.923	-124.313	84.615	213.636	-137.69	64.0302	218.41	-84.4344	140.515	210.846	-73.0746	165.548	235.804	-55.7253	148.557	
110	0.916667	225.151	-11.6785	128.48	211.432	-16.7233	96.048	211.527	-19.2488	68.7985	215.626	-35.2223	46.1646	272.679	-48.2864	94.0462	273.973	-51.1453	62.0256	266.591	-53.0608	36.5624	264.406	-60.9035	87.5323	242.805	-59.0714	57.9609	210.829	-46.9023	60.6819	256.323	-82.9728	95.077	255.98	-84.1493	62.6427	243.926	-80.4454	41.2159	243.704	-99.1251	111.398	252.148	-110.163	92.1937	258.859	-127.827	71.5745	238.435	-72.6138	147.233	223.462	-60.6101	170.383	248.48	-39.1616	153.205	
111	0.925	210.643	-3.4135	128.672	200.06	-10.473	96.9621	201.715	-13.6211	69.3708	210.333	-27.3594	48.9135	269.786	-15.6455	91.5262	272.514	-17.8969	61.3564	266.594	-23.6545	35.6273	266.1	-35.5632	86.6842	250.164	-37.6216	58.5681	210.561	-40.6472	58.0198	268.26	-57.439	94.9855	267.963	-59.148	65.8991	254.511	-61.749	38.3195	259.071	-73.7144	113.066	273.301	-85.7528	94.606	285.592	-98.2418	76.7866	249.607	-47.3971	144.62	230.343	-48.1638	169.675	240.02	-15.5511	155.158	
112	0.933333	192.21	3.3117	126.61	186.077	-8.34297	94.3515	186.005	-12.4292	68.3045	195.624	-22.759	45.8371	249.201	9.5096	86.761	254.902	5.05826	56.3055	252.839	-2.52036	34.4694	251.792	-11.4196	77.8155	240.616	-23.6044	54.2695	205.155	-34.4638	48.9631	262.819	-30.6207	88.9708	262.45	-37.8333	60.0307	248.252	-46.1358	33.9483	260.662	-54.6507	109.591	277.399	-64.2716	91.8546	291.823	-70.4255	72.6289	246.363	-30.8627	141.997	227.396	-32.1777	166.386	225.841	-1.74885	147.868	
113	0.941667	169.768	3.7252	124.581	160.753	-10.8025	92.9918	166.646	-16.8571	63.0045	174.509	-26.0965	44.9833	226.518	17.8826	79.2283	227.888	18.9758	51.7694	231.288	5.54915	22.8778	234.368	-5.57253	74.3828	220.65	-20.8214	45.8306	196.096	-36.1481	41.1038	245.32	-18.0962	81.2462	248.227	-30.2709	54.3715	233.18	-38.9924	27.9165	253.671	-40.0619	101.331	267.897	-43.1785	83.3432	284.02	-50.9346	70.379	232.116	-17.5859	133.91	213.805	-21.5593	162.428	206.266	6.53885	143.133	
114	0.95	152.496	-4.22341	119.388	145.249	-22.6061	93.5875	148.798	-31.2553	68.2913	159.93	-39.9814	44.537	199.429	17.1648	68.9819	202.537	13.3185	40.45	206.103	1.24327	16.0901	214.106	-4.72468	64.3284	201.41	-19.7021	41.7337	178.612	-44.6364	39.0384	226.293	-14.2548	73.1265	227.987	-28.8387	45.509	218.725	-42.9697	27.1094	239.548	-33.7099	97.4923	254.263	-37.0762	78.0281	270.508	-41.0887	65.5611	216.502	-12.4305	131.855	204.137	-12.0393	153.783	186.393	8.82444	136.046	
115	0.958333	137.599	-16.5513	122.748	132.098	-40.003	95.7547	134.27	-51.199	70.95	149.032	-60.9524	51.5386	180.17	5.55405	64.4111	180.028	-0.498277	33.7817	179.82	-15.4882	8.92028	193.43	-10.7012	59.5923	185.47	-38.4343	38.8192	163.122	-64.4876	46.0293	212.441	-20.8658	72.3291	211.449	-33.0654	44.3937	204.251	-54.975	26.2511	226.467	-30.3452	90.554	239.858	-33.8995	71.9515	256.299	-33.6142	58.7885	202.492	-10.6581	126.05	192.135	-11.3066	151.767	175.416	6.54681	129.497	
116	0.966667	129.78	-26.3727	122.535	124.473	-55.424	101.748	124.128	-71.2363	77.8567	135.344	-80.5929	61.9191	159.273	-9.04313	59.9416	156.927	-21.2823	29.9906	162.064	-42.9901	11.7059	173.779	-24.1264	56.0776	170.442	-55.6459	44.098	156.416	-82.0932	59.0381	195.078	-28.3299	65.3929	197.933	-46.0819	44.4525	189.906	-69.4412	32.0357	212.231	-31.3859	87.5904	224.834	-36.9702	74.4637	240.855	-37.5108	53.4081	188.354	-10.0805	117.39	179.573	-6.38067	150.477	155.88	3.75853	127.096	
117	0.975	117.595	-29.8419	126.923	109.378	-60.5572	111.866	113.425	-77.5974	90.5718	117.646	-93.5555	70.6217	138.655	-21.6053	56.6577	136.597	-37.9906	34.8778	139.387	-61.8205	19.0588	157.78	-37.2169	59.0437	151.253	-63.978	49.265	137.486	-91.8811	71.4239	180.987	-39.9919	68.0521	179.113	-60.7764	49.2809	167.048	-88.3537	38.6639	200.666	-41.526	87.8921	209.574	-47.957	74.3069	224.607	-54.2106	51.3782	174.404	-14.1945	115.771	171.738	-9.9009	148.401	144.977	-1.44698	120.725	
